<mxfile host="app.diagrams.net" modified="2024-06-25T15:57:44.384Z" agent="Mozilla/5.0 (Windows NT 10.0; Win64; x64) AppleWebKit/537.36 (KHTML, like Gecko) Chrome/126.0.0.0 Safari/537.36 Edg/126.0.0.0" etag="J6D1f6I8bMC47Y_4jl4K" version="24.6.2" type="device">
  <diagram name="第 1 页" id="LbjC4Aew5rnRf9c9ZSg2">
    <mxGraphModel dx="1073" dy="608" grid="1" gridSize="10" guides="1" tooltips="1" connect="1" arrows="1" fold="1" page="1" pageScale="1" pageWidth="827" pageHeight="1169" math="0" shadow="0">
      <root>
        <mxCell id="0" />
        <mxCell id="1" parent="0" />
        <mxCell id="98Awgn6NI5J_vpNsAE2z-7" style="rounded=0;orthogonalLoop=1;jettySize=auto;html=1;exitX=0.5;exitY=1;exitDx=0;exitDy=0;entryX=0.5;entryY=0;entryDx=0;entryDy=0;" parent="1" source="98Awgn6NI5J_vpNsAE2z-1" target="98Awgn6NI5J_vpNsAE2z-4" edge="1">
          <mxGeometry relative="1" as="geometry" />
        </mxCell>
        <mxCell id="98Awgn6NI5J_vpNsAE2z-13" style="rounded=0;orthogonalLoop=1;jettySize=auto;html=1;exitX=0.5;exitY=1;exitDx=0;exitDy=0;entryX=0.5;entryY=0;entryDx=0;entryDy=0;" parent="1" source="98Awgn6NI5J_vpNsAE2z-1" target="98Awgn6NI5J_vpNsAE2z-9" edge="1">
          <mxGeometry relative="1" as="geometry" />
        </mxCell>
        <mxCell id="98Awgn6NI5J_vpNsAE2z-1" value="/cgroup-root" style="rounded=1;whiteSpace=wrap;html=1;verticalAlign=top;fontSize=10;" parent="1" vertex="1">
          <mxGeometry x="320" y="80" width="150" height="90" as="geometry" />
        </mxCell>
        <mxCell id="98Awgn6NI5J_vpNsAE2z-2" value="&lt;div style=&quot;&quot;&gt;&lt;span style=&quot;font-size: 7px; background-color: initial;&quot;&gt;cpu.max = 20%&lt;/span&gt;&lt;/div&gt;" style="rounded=0;whiteSpace=wrap;html=1;verticalAlign=middle;align=center;horizontal=1;fillColor=#f8cecc;strokeColor=#b85450;" parent="1" vertex="1">
          <mxGeometry x="335" y="110" width="120" height="20" as="geometry" />
        </mxCell>
        <mxCell id="98Awgn6NI5J_vpNsAE2z-3" value="&lt;font style=&quot;font-size: 7px;&quot;&gt;subtree_control = cpu&lt;/font&gt;" style="rounded=0;whiteSpace=wrap;html=1;" parent="1" vertex="1">
          <mxGeometry x="335" y="140" width="120" height="20" as="geometry" />
        </mxCell>
        <mxCell id="98Awgn6NI5J_vpNsAE2z-4" value="/cgroup-A" style="rounded=1;whiteSpace=wrap;html=1;verticalAlign=top;fontSize=10;fillColor=#d5e8d4;strokeColor=#82b366;" parent="1" vertex="1">
          <mxGeometry x="140" y="220" width="150" height="100" as="geometry" />
        </mxCell>
        <mxCell id="98Awgn6NI5J_vpNsAE2z-5" value="&lt;div style=&quot;&quot;&gt;&lt;span style=&quot;font-size: 7px; background-color: initial;&quot;&gt;cpu.max = 20%&lt;/span&gt;&lt;/div&gt;" style="rounded=0;whiteSpace=wrap;html=1;verticalAlign=middle;align=center;horizontal=1;fillColor=#f8cecc;strokeColor=#b85450;" parent="1" vertex="1">
          <mxGeometry x="155" y="250" width="120" height="20" as="geometry" />
        </mxCell>
        <mxCell id="98Awgn6NI5J_vpNsAE2z-8" value="&lt;font style=&quot;font-size: 7px;&quot;&gt;subtree_control = (NULL)&lt;/font&gt;" style="rounded=0;whiteSpace=wrap;html=1;" parent="1" vertex="1">
          <mxGeometry x="155" y="280" width="120" height="20" as="geometry" />
        </mxCell>
        <mxCell id="98Awgn6NI5J_vpNsAE2z-19" style="rounded=0;orthogonalLoop=1;jettySize=auto;html=1;exitX=0.5;exitY=1;exitDx=0;exitDy=0;entryX=0.5;entryY=0;entryDx=0;entryDy=0;" parent="1" source="98Awgn6NI5J_vpNsAE2z-9" target="98Awgn6NI5J_vpNsAE2z-15" edge="1">
          <mxGeometry relative="1" as="geometry" />
        </mxCell>
        <mxCell id="98Awgn6NI5J_vpNsAE2z-24" style="rounded=0;orthogonalLoop=1;jettySize=auto;html=1;exitX=0.5;exitY=1;exitDx=0;exitDy=0;entryX=0.5;entryY=0;entryDx=0;entryDy=0;" parent="1" source="98Awgn6NI5J_vpNsAE2z-9" target="98Awgn6NI5J_vpNsAE2z-20" edge="1">
          <mxGeometry relative="1" as="geometry" />
        </mxCell>
        <mxCell id="98Awgn6NI5J_vpNsAE2z-9" value="/cgroup-B" style="rounded=1;whiteSpace=wrap;html=1;verticalAlign=top;fontSize=10;" parent="1" vertex="1">
          <mxGeometry x="505" y="220" width="150" height="100" as="geometry" />
        </mxCell>
        <mxCell id="98Awgn6NI5J_vpNsAE2z-10" value="&lt;div style=&quot;&quot;&gt;&lt;span style=&quot;font-size: 7px; background-color: initial;&quot;&gt;cpu.max = 20%&lt;/span&gt;&lt;/div&gt;" style="rounded=0;whiteSpace=wrap;html=1;verticalAlign=middle;align=center;horizontal=1;fillColor=#f8cecc;strokeColor=#b85450;" parent="1" vertex="1">
          <mxGeometry x="520" y="250" width="120" height="20" as="geometry" />
        </mxCell>
        <mxCell id="98Awgn6NI5J_vpNsAE2z-12" value="&lt;font style=&quot;font-size: 7px;&quot;&gt;subtree_control = cpu memory&lt;/font&gt;" style="rounded=0;whiteSpace=wrap;html=1;" parent="1" vertex="1">
          <mxGeometry x="520" y="280" width="120" height="20" as="geometry" />
        </mxCell>
        <mxCell id="98Awgn6NI5J_vpNsAE2z-15" value="/cgroup-B1" style="rounded=1;whiteSpace=wrap;html=1;verticalAlign=top;fontSize=10;fillColor=#d5e8d4;strokeColor=#82b366;" parent="1" vertex="1">
          <mxGeometry x="370" y="380" width="150" height="120" as="geometry" />
        </mxCell>
        <mxCell id="98Awgn6NI5J_vpNsAE2z-16" value="&lt;div style=&quot;&quot;&gt;&lt;span style=&quot;font-size: 7px; background-color: initial;&quot;&gt;cpu.max = 50%&lt;/span&gt;&lt;/div&gt;" style="rounded=0;whiteSpace=wrap;html=1;verticalAlign=middle;align=center;horizontal=1;fillColor=#f8cecc;strokeColor=#b85450;" parent="1" vertex="1">
          <mxGeometry x="385" y="410" width="120" height="20" as="geometry" />
        </mxCell>
        <mxCell id="98Awgn6NI5J_vpNsAE2z-17" value="&lt;font style=&quot;font-size: 7px;&quot;&gt;memory.max = 100M&lt;/font&gt;" style="rounded=0;whiteSpace=wrap;html=1;fillColor=#dae8fc;strokeColor=#6c8ebf;" parent="1" vertex="1">
          <mxGeometry x="385" y="440" width="120" height="20" as="geometry" />
        </mxCell>
        <mxCell id="98Awgn6NI5J_vpNsAE2z-18" value="&lt;font style=&quot;font-size: 7px;&quot;&gt;subtree_control = (NULL)&lt;/font&gt;" style="rounded=0;whiteSpace=wrap;html=1;" parent="1" vertex="1">
          <mxGeometry x="385" y="470" width="120" height="20" as="geometry" />
        </mxCell>
        <mxCell id="98Awgn6NI5J_vpNsAE2z-20" value="/cgroup-B2" style="rounded=1;whiteSpace=wrap;html=1;verticalAlign=top;fontSize=10;fillColor=#d5e8d4;strokeColor=#82b366;" parent="1" vertex="1">
          <mxGeometry x="640" y="380" width="150" height="120" as="geometry" />
        </mxCell>
        <mxCell id="98Awgn6NI5J_vpNsAE2z-21" value="&lt;div style=&quot;&quot;&gt;&lt;span style=&quot;font-size: 7px; background-color: initial;&quot;&gt;cpu.max = 10%&lt;/span&gt;&lt;/div&gt;" style="rounded=0;whiteSpace=wrap;html=1;verticalAlign=middle;align=center;horizontal=1;fillColor=#f8cecc;strokeColor=#b85450;" parent="1" vertex="1">
          <mxGeometry x="655" y="410" width="120" height="20" as="geometry" />
        </mxCell>
        <mxCell id="98Awgn6NI5J_vpNsAE2z-22" value="&lt;font style=&quot;font-size: 7px;&quot;&gt;memory.max = 20M&lt;/font&gt;" style="rounded=0;whiteSpace=wrap;html=1;fillColor=#dae8fc;strokeColor=#6c8ebf;" parent="1" vertex="1">
          <mxGeometry x="655" y="440" width="120" height="20" as="geometry" />
        </mxCell>
        <mxCell id="98Awgn6NI5J_vpNsAE2z-23" value="&lt;font style=&quot;font-size: 7px;&quot;&gt;subtree_control = (NULL)&lt;/font&gt;" style="rounded=0;whiteSpace=wrap;html=1;" parent="1" vertex="1">
          <mxGeometry x="655" y="470" width="120" height="20" as="geometry" />
        </mxCell>
        <mxCell id="QbbYL64iohitqP2shOQA-2" style="edgeStyle=orthogonalEdgeStyle;rounded=0;orthogonalLoop=1;jettySize=auto;html=1;exitX=0.5;exitY=0;exitDx=0;exitDy=0;entryX=0.5;entryY=1;entryDx=0;entryDy=0;dashed=1;" edge="1" parent="1" source="QbbYL64iohitqP2shOQA-1" target="98Awgn6NI5J_vpNsAE2z-15">
          <mxGeometry relative="1" as="geometry" />
        </mxCell>
        <mxCell id="QbbYL64iohitqP2shOQA-1" value="进程B1" style="rounded=1;whiteSpace=wrap;html=1;" vertex="1" parent="1">
          <mxGeometry x="403" y="600" width="84" height="35" as="geometry" />
        </mxCell>
        <mxCell id="QbbYL64iohitqP2shOQA-4" style="edgeStyle=orthogonalEdgeStyle;rounded=0;orthogonalLoop=1;jettySize=auto;html=1;exitX=0.5;exitY=0;exitDx=0;exitDy=0;entryX=0.5;entryY=1;entryDx=0;entryDy=0;dashed=1;" edge="1" parent="1" source="QbbYL64iohitqP2shOQA-3" target="98Awgn6NI5J_vpNsAE2z-20">
          <mxGeometry relative="1" as="geometry" />
        </mxCell>
        <mxCell id="QbbYL64iohitqP2shOQA-3" value="进程B2" style="rounded=1;whiteSpace=wrap;html=1;" vertex="1" parent="1">
          <mxGeometry x="673" y="600" width="84" height="35" as="geometry" />
        </mxCell>
        <mxCell id="QbbYL64iohitqP2shOQA-6" style="edgeStyle=orthogonalEdgeStyle;rounded=0;orthogonalLoop=1;jettySize=auto;html=1;exitX=0.5;exitY=0;exitDx=0;exitDy=0;entryX=0.5;entryY=1;entryDx=0;entryDy=0;dashed=1;" edge="1" parent="1" source="QbbYL64iohitqP2shOQA-5" target="98Awgn6NI5J_vpNsAE2z-4">
          <mxGeometry relative="1" as="geometry" />
        </mxCell>
        <mxCell id="QbbYL64iohitqP2shOQA-5" value="进程A" style="rounded=1;whiteSpace=wrap;html=1;" vertex="1" parent="1">
          <mxGeometry x="173" y="600" width="84" height="35" as="geometry" />
        </mxCell>
      </root>
    </mxGraphModel>
  </diagram>
</mxfile>
